HIERARCHY
ROOT Hips
{
	OFFSET 0.000000 0.000000 0.000000
	CHANNELS 6 Xposition Yposition Zposition Zrotation Yrotation Xrotation 
	JOINT LeftUpLeg_virtual
	{
		OFFSET 0.000000 0.000000 0.000000
		CHANNELS 3 Zrotation Yrotation Xrotation
		JOINT LeftUpLeg
		{
			OFFSET 10.205400 -3.823500 0.155100
			CHANNELS 3 Zrotation Yrotation Xrotation
			JOINT LeftLeg
			{
				OFFSET 0.708757 -12.982077 0.567790
				CHANNELS 3 Zrotation Yrotation Xrotation
				JOINT LeftFoot
				{
					OFFSET -0.708756 -10.717838 -2.184338
					CHANNELS 3 Zrotation Yrotation Xrotation
					JOINT LeftToeBase
					{
						OFFSET 0.108149 -7.191104 7.560241
						CHANNELS 3 Zrotation Yrotation Xrotation
						End Site
						{
							OFFSET 0.000000 0.000000 0.000000
						}
					}
				}
			}
		}
	}
	JOINT RightUpLeg_virtual
	{
		OFFSET 0.000000 0.000000 0.000000
		CHANNELS 3 Zrotation Yrotation Xrotation
		JOINT RightUpLeg
		{
			OFFSET -10.205400 -3.823500 0.005500
			CHANNELS 3 Zrotation Yrotation Xrotation
			JOINT RightLeg
			{
				OFFSET -0.708756 -12.982134 0.610632
				CHANNELS 3 Zrotation Yrotation Xrotation
				JOINT RightFoot
				{
					OFFSET 0.708754 -10.717769 -1.945823
					CHANNELS 3 Zrotation Yrotation Xrotation
					JOINT RightToeBase
					{
						OFFSET -0.108140 -7.191069 7.372968
						CHANNELS 3 Zrotation Yrotation Xrotation
						End Site
						{
							OFFSET 0.000000 0.000000 0.000000
						}
					}
				}
			}
		}
	}
	JOINT Spine_virtual
	{
		OFFSET 0.000000 0.000000 0.000000
		CHANNELS 3 Zrotation Yrotation Xrotation
		JOINT Spine
		{
			OFFSET 0.000000 6.876099 0.125700
			CHANNELS 3 Zrotation Yrotation Xrotation
			JOINT Spine1
			{
				OFFSET 0.000000 8.022060 0.146608
				CHANNELS 3 Zrotation Yrotation Xrotation
				JOINT Spine2
				{
					OFFSET 0.000000 9.168068 0.167552
					CHANNELS 3 Zrotation Yrotation Xrotation
					JOINT Neck_virtual
					{
						OFFSET 0.000000 0.000000 0.000000
						CHANNELS 3 Zrotation Yrotation Xrotation
						JOINT Neck
						{
							OFFSET 0.000000 10.314075 0.188496
							CHANNELS 3 Zrotation Yrotation Xrotation
							JOINT Head
							{
								OFFSET 0.000000 7.643700 -2.377400
								CHANNELS 3 Zrotation Yrotation Xrotation
								End Site
								{
									OFFSET 0.000000 0.000000 0.000000
								}
							}
						}
					}
					JOINT LeftShoulder_virtual
					{
						OFFSET 0.000000 0.000000 0.000000
						CHANNELS 3 Zrotation Yrotation Xrotation
						JOINT LeftShoulder
						{
							OFFSET 4.392200 8.824978 0.174984
							CHANNELS 3 Zrotation Yrotation Xrotation
							JOINT LeftArm
							{
								OFFSET 8.771219 -2.981674 -0.026999
								CHANNELS 3 Zrotation Yrotation Xrotation
								JOINT LeftForeArm
								{
									OFFSET 8.512804 0.000000 -0.000000
									CHANNELS 3 Zrotation Yrotation Xrotation
									JOINT LeftHand
									{
										OFFSET 18.484802 0.000000 -0.000000
										CHANNELS 3 Zrotation Yrotation Xrotation
										End Site
										{
											OFFSET 0.000000 0.000000 0.000000
										}
									}
								}
							}
						}
					}
					JOINT RightShoulder_virtual
					{
						OFFSET 0.000000 0.000000 0.000000
						CHANNELS 3 Zrotation Yrotation Xrotation
						JOINT RightShoulder
						{
							OFFSET -4.392200 8.824993 0.141379
							CHANNELS 3 Zrotation Yrotation Xrotation
							JOINT RightArm
							{
								OFFSET -8.771282 -2.981682 -0.094208
								CHANNELS 3 Zrotation Yrotation Xrotation
								JOINT RightForeArm
								{
									OFFSET -8.494598 0.000000 0.000000
									CHANNELS 3 Zrotation Yrotation Xrotation
									JOINT RightHand
									{
										OFFSET -18.483803 0.000000 0.000001
										CHANNELS 3 Zrotation Yrotation Xrotation
										End Site
										{
											OFFSET 0.000000 0.000000 0.000000
										}
									}
								}
							}
						}
					}
				}
			}
		}
	}
}
MOTION
Frames: 11
Frame Time: 0.033333
-3.745925 36.248623 12.467197 179.271798 64.785287 179.574525 -0.482651 0.706724 19.264822 -2.967753 7.668132 -30.860226 8.658577 0.495072 25.296970 -4.743493 -2.777488 5.913076 0.000000 0.000000 0.000000 4.879459 2.382556 16.683466 -3.038036 -5.676615 -26.441662 -4.943033 1.396678 19.708847 8.269508 2.104339 9.784132 0.000000 0.000000 0.000000 2.349029 2.836524 21.106458 2.485518 -1.157416 5.897986 -0.615947 -4.910841 12.249071 0.043184 -0.003705 0.057755 -0.149439 -4.090131 13.156481 3.143270 -6.739988 9.821669 0.000000 0.000000 0.000000 0.757218 -2.937859 9.316208 -6.032387 -10.616662 0.203051 -49.404572 -15.737222 1.001090 -0.672438 -36.996532 3.386140 0.000000 0.000000 0.000000 -2.225451 -1.900480 8.853993 15.686788 6.343312 -2.806894 53.017523 13.056006 16.092226 -9.168145 36.901234 -7.447384 0.000000 0.000000 0.000000 
-4.149307 36.190624 12.589999 179.521646 66.360834 -179.911308 -0.459067 0.903252 19.934208 -3.428286 8.183813 -32.289870 8.757955 0.930728 25.573244 -4.489771 -2.925482 5.501178 0.000000 0.000000 0.000000 4.552973 1.788641 17.729745 -2.220359 -6.167341 -27.510892 -4.701350 1.173643 18.442149 8.888783 1.417122 9.218614 0.000000 0.000000 0.000000 2.382076 2.734470 22.794862 2.614403 -1.305677 7.255206 -0.700007 -4.769319 12.394095 0.054075 0.072452 0.061572 -0.287480 -3.897379 13.391255 2.974114 -6.830491 9.264426 0.000000 0.000000 0.000000 0.573429 -2.904010 9.444364 -6.305046 -11.076090 0.550753 -48.798450 -16.318196 0.860880 -0.757980 -38.186686 3.683392 0.000000 0.000000 0.000000 -2.407938 -1.824224 9.078892 15.751118 6.814997 -2.823211 53.038553 14.098145 16.292687 -9.385156 37.018983 -7.499898 0.000000 0.000000 0.000000 
-4.533832 36.121922 12.701550 179.295252 67.618026 179.659261 -0.506434 1.211652 20.899399 -3.922199 8.614077 -33.774985 8.940531 1.325312 26.061806 -4.350198 -3.108709 5.188509 0.000000 0.000000 0.000000 4.410915 1.802806 18.597384 -2.192998 -6.327389 -29.107309 -4.375254 1.908705 17.541263 9.506074 1.474883 9.341874 0.000000 0.000000 0.000000 2.458353 2.690858 24.849529 2.707258 -1.463803 8.830331 -0.814112 -4.672540 12.606341 0.078651 0.032158 0.050936 -0.339904 -3.930207 13.549103 2.904797 -6.932195 8.727415 0.000000 0.000000 0.000000 0.510385 -2.880749 9.536452 -6.470897 -11.659553 0.822478 -48.210901 -16.995565 0.534340 -0.829029 -39.198042 4.006821 0.000000 0.000000 0.000000 -2.450819 -1.759853 9.104400 15.926804 7.138592 -2.785214 53.027827 15.083631 16.343277 -9.657177 37.171891 -7.558205 0.000000 0.000000 0.000000 
-4.892370 36.063278 12.794475 179.441938 68.686288 179.878564 -0.473897 1.236077 21.800750 -4.480981 9.118379 -35.425189 9.118254 1.789275 26.321900 -4.265021 -3.266536 5.199900 0.000000 0.000000 0.000000 4.070245 1.880322 19.695670 -2.226733 -5.763047 -30.795790 -4.067519 1.968934 18.696366 5.123271 1.473243 10.337510 0.000000 0.000000 0.000000 2.627919 2.492423 26.756889 2.864621 -1.689908 10.250032 -0.868945 -4.593452 12.741221 0.061740 0.012524 0.069465 -0.433603 -3.790059 13.791947 2.863833 -7.088994 8.111334 0.000000 0.000000 0.000000 0.367551 -2.820192 9.655603 -6.791878 -12.267791 1.166959 -47.464088 -17.612560 0.200086 -0.868615 -40.158739 4.265958 0.000000 0.000000 0.000000 -2.635037 -1.777894 9.326128 16.072617 7.561999 -2.870698 52.974913 16.125272 16.008068 -9.704527 37.407126 -7.376343 0.000000 0.000000 0.000000 
-5.211706 36.011711 12.850320 179.793446 69.654454 -179.636584 -0.379294 1.314015 22.409910 -5.123178 9.641587 -36.777570 9.286498 2.356073 26.551085 -4.193211 -3.374402 5.265889 0.000000 0.000000 0.000000 3.917887 1.902437 20.807198 -2.553039 -5.951549 -32.556104 -4.330385 -0.543228 19.612270 2.115652 1.188221 12.697569 0.000000 0.000000 0.000000 2.855878 2.194528 28.600621 3.026209 -1.942313 11.622840 -0.913822 -4.514654 12.919531 -0.034687 0.005622 0.056293 -0.533186 -3.682495 14.053446 2.774723 -7.275019 7.353487 0.000000 0.000000 0.000000 0.248484 -2.735396 9.858226 -7.074257 -12.892467 1.487344 -46.565064 -18.341240 -0.494249 -1.078262 -40.899145 4.738874 0.000000 0.000000 0.000000 -2.629804 -1.626515 9.560424 16.222637 7.835230 -3.049511 52.847168 16.974162 15.970922 -9.984066 37.821688 -7.410160 0.000000 0.000000 0.000000 
-5.476363 35.957188 12.883817 -179.819743 70.656982 -179.215817 -0.220554 1.282984 23.255754 -5.794624 9.997734 -38.109150 9.570103 2.779603 26.872536 -4.089281 -3.402829 5.212055 0.000000 0.000000 0.000000 4.070134 1.703400 21.881488 -3.008757 -6.185984 -34.326789 -4.664834 -1.726210 19.824834 0.978317 0.602993 15.180830 0.000000 0.000000 0.000000 3.174898 1.906904 30.395404 3.166067 -2.159316 13.076022 -1.005953 -4.386405 13.212951 -0.042290 0.010996 0.034053 -0.585614 -3.757823 14.156799 2.769041 -7.409914 6.480657 0.000000 0.000000 0.000000 0.117672 -2.686951 9.947108 -7.367528 -13.672911 1.916415 -45.676009 -19.279826 -1.230696 -1.055495 -41.637899 4.955912 0.000000 0.000000 0.000000 -2.736994 -1.510164 9.663662 16.241143 8.180826 -2.967929 52.468858 18.029536 15.710046 -10.146529 38.262344 -7.202936 0.000000 0.000000 0.000000 
-5.687431 35.906284 12.927188 -179.615356 72.085741 -179.232729 -0.001130 1.368537 24.505783 -6.447638 10.308692 -39.226760 9.797517 3.213160 26.899933 -3.951205 -3.353450 5.198964 0.000000 0.000000 0.000000 4.103124 1.549235 22.904179 -3.194902 -5.862439 -36.068064 -4.357739 -1.960465 19.609384 0.864132 0.542333 15.582266 0.000000 0.000000 0.000000 3.454294 1.892719 32.533724 3.177431 -2.265799 14.409484 -1.118749 -4.300217 13.318008 -0.015630 -0.014718 0.046040 -0.659682 -3.543838 14.403587 2.695804 -7.580730 5.956545 0.000000 0.000000 0.000000 -0.031992 -2.546546 10.075361 -7.605210 -14.442862 2.140342 -44.740953 -20.325729 -1.933489 -1.181399 -42.182658 5.328829 0.000000 0.000000 0.000000 -2.902651 -1.414610 9.776534 16.214464 8.543055 -3.089707 52.065477 19.142686 15.388315 -10.160743 38.861058 -7.076551 0.000000 0.000000 0.000000 
-5.843544 35.875000 12.917802 -179.140617 73.212422 -178.847124 0.229409 1.411518 25.586964 -7.064383 10.457067 -40.403362 10.073356 3.600203 27.106168 -3.813630 -3.272550 5.170597 0.000000 0.000000 0.000000 4.297860 1.364281 23.907783 -3.485727 -5.685289 -37.671413 -4.172558 -2.012493 19.342261 0.932496 0.579917 16.076780 0.000000 0.000000 0.000000 3.886984 1.602137 34.449773 3.204014 -2.391945 15.661098 -1.253537 -4.121291 13.534520 -0.057440 0.068866 -0.052718 -0.763285 -3.488073 14.565098 2.584331 -7.724498 5.243639 0.000000 0.000000 0.000000 -0.199067 -2.515140 10.289323 -7.646903 -15.328860 2.341340 -43.592948 -21.692787 -2.888951 -1.256449 -42.704238 5.645384 0.000000 0.000000 0.000000 -3.094018 -1.429126 9.901669 16.108071 8.866951 -3.193925 51.507078 20.523458 15.102327 -10.349113 39.310819 -6.968525 0.000000 0.000000 0.000000 
-5.948658 35.859451 12.870233 -178.429471 74.460953 -178.300394 0.484556 1.481679 26.796779 -7.652864 10.485481 -41.540821 10.352894 4.026696 27.458189 -3.647623 -3.151535 5.072720 0.000000 0.000000 0.000000 4.574065 1.203335 24.898463 -3.830338 -5.578593 -39.290752 -3.988957 -1.853476 18.935255 1.098809 0.692606 16.618890 0.000000 0.000000 0.000000 4.352699 1.454887 36.395872 3.211437 -2.448616 16.830146 -1.413640 -4.040619 13.671125 -0.053970 0.027856 0.047979 -0.871879 -3.376024 14.704062 2.317430 -7.913772 4.730478 0.000000 0.000000 0.000000 -0.290705 -2.439444 10.342552 -7.694813 -16.091108 2.412357 -42.397143 -23.211133 -3.925861 -1.400731 -43.120688 6.029443 0.000000 0.000000 0.000000 -3.134046 -1.377549 9.983546 15.876186 9.264735 -3.525364 50.763349 22.092629 14.513886 -10.388941 39.689130 -6.728667 0.000000 0.000000 0.000000 
-6.010540 35.858700 12.779893 -177.852033 75.767015 -177.790111 0.666089 1.603264 28.127259 -8.223504 10.457938 -42.634912 10.595003 4.731853 27.747784 -3.499850 -3.041320 4.942442 0.000000 0.000000 0.000000 4.806049 1.090213 25.909114 -4.162879 -5.432110 -40.873512 -3.814820 -1.493840 18.379856 1.198078 0.778409 17.321681 0.000000 0.000000 0.000000 4.603437 1.314914 38.195729 3.033172 -2.494334 17.884271 -1.443757 -3.949178 13.886915 -0.058217 0.058097 -0.024905 -0.949033 -3.280195 14.924846 2.014559 -8.122642 4.313498 0.000000 0.000000 0.000000 -0.390289 -2.293983 10.363899 -7.698738 -16.784077 2.708612 -40.994242 -24.880728 -5.227509 -1.299630 -43.453199 6.079996 0.000000 0.000000 0.000000 -3.235945 -1.206001 10.172927 15.646905 9.782515 -3.746473 50.024384 23.811551 13.843193 -10.401897 40.024656 -6.419647 0.000000 0.000000 0.000000 
-6.033990 35.866512 12.659813 -177.675992 76.890458 -177.619903 0.660841 1.580710 29.340526 -8.679015 10.259355 -43.518779 10.763134 5.474794 27.855788 -3.334264 -2.909817 4.996934 0.000000 0.000000 0.000000 4.949081 0.968948 26.909016 -4.534141 -5.323171 -42.263766 -3.652950 -0.965333 17.720506 1.362268 0.925405 18.076855 0.000000 0.000000 0.000000 4.862393 1.108943 39.916069 2.856653 -2.520277 18.762712 -1.528370 -3.867291 13.985266 -0.055074 0.093750 0.014523 -1.023411 -3.267393 15.059396 1.648736 -8.287530 3.978999 0.000000 0.000000 0.000000 -0.471098 -2.283955 10.496436 -7.610893 -17.417240 2.760404 -39.575096 -26.376039 -6.700095 -1.438533 -43.689554 6.350624 0.000000 0.000000 0.000000 -3.285516 -1.181026 10.327557 15.367948 10.096941 -4.114580 49.420824 25.302671 13.293825 -10.433239 40.463711 -6.395845 0.000000 0.000000 0.000000 
